<svg width="200" height="182" viewBox="0 0 200 182" fill="none" xmlns="http://www.w3.org/2000/svg">
<g filter="url(#filter0_d_6_2)">
<path d="M64.1074 64.4062H44.8203V91.6035C44.8203 94.11 44.153 95.9329 42.8184 97.0723C41.5163 98.2116 39.5143 98.7812 36.8125 98.7812C34.0781 98.7812 32.0599 98.2116 30.7578 97.0723C29.4557 95.9329 28.8047 94.11 28.8047 91.6035V64.4062H21.1875V60.1094H28.8047V29.3965C27.763 29.4941 26.5586 29.6895 25.1914 29.9824C23.8568 30.2428 22.4733 30.6335 21.041 31.1543C19.6413 31.6426 18.2578 32.2285 16.8906 32.9121C15.5234 33.5957 14.3027 34.3932 13.2285 35.3047C12.1543 36.2161 11.2754 37.2415 10.5918 38.3809C9.94076 39.4876 9.61523 40.6921 9.61523 41.9941C9.61523 43.0358 9.74544 43.8659 10.0059 44.4844C10.2988 45.1029 10.6243 45.5749 10.9824 45.9004C11.3405 46.1934 11.6986 46.3887 12.0566 46.4863C12.4473 46.5514 12.724 46.584 12.8867 46.584C13.7005 46.584 14.3678 46.4538 14.8887 46.1934C15.4095 45.9004 15.8815 45.6074 16.3047 45.3145C16.7279 44.9889 17.1185 44.696 17.4766 44.4355C17.8672 44.1426 18.3066 43.9961 18.7949 43.9961C19.1855 43.9961 19.5924 44.0938 20.0156 44.2891C20.4714 44.4518 20.8783 44.7285 21.2363 45.1191C21.627 45.5098 21.9525 46.0306 22.2129 46.6816C22.4733 47.3001 22.6035 48.0651 22.6035 48.9766C22.6035 50.2786 22.3431 51.418 21.8223 52.3945C21.334 53.3385 20.6829 54.1198 19.8691 54.7383C19.0879 55.3568 18.1764 55.8288 17.1348 56.1543C16.1257 56.4473 15.1165 56.5938 14.1074 56.5938C12.5449 56.5938 11.1289 56.3333 9.85938 55.8125C8.6224 55.2591 7.56445 54.5104 6.68555 53.5664C5.80664 52.6224 5.13932 51.5319 4.68359 50.2949C4.22786 49.0254 4 47.6582 4 46.1934C4 42.3848 5.04167 39.1458 7.125 36.4766C9.24089 33.8073 12.1217 31.6263 15.7676 29.9336C19.4134 28.2083 23.6615 26.9551 28.5117 26.1738C33.362 25.3926 38.554 25.002 44.0879 25.002C46.334 25.002 48.6777 25.0345 51.1191 25.0996C53.5605 25.1322 55.8555 25.1973 58.0039 25.2949C60.1849 25.3926 62.1055 25.5065 63.7656 25.6367C65.4258 25.7669 66.5977 25.9134 67.2812 26.0762C67.9323 26.2389 68.4531 26.418 68.8438 26.6133C69.2344 26.8086 69.5273 27.0365 69.7227 27.2969C69.918 27.5573 70.0482 27.8665 70.1133 28.2246C70.1784 28.5501 70.2109 28.9408 70.2109 29.3965C70.2109 29.7871 70.1621 30.2266 70.0645 30.7148C69.9668 31.1706 69.8203 31.61 69.625 32.0332C69.4297 32.4238 69.1855 32.7656 68.8926 33.0586C68.5996 33.3516 68.2415 33.498 67.8184 33.498C67.5579 33.498 67.265 33.3841 66.9395 33.1562C66.6465 32.9284 66.207 32.6354 65.6211 32.2773C65.0677 31.9193 64.3027 31.5449 63.3262 31.1543C62.3822 30.7637 61.0964 30.3893 59.4688 30.0312C57.8737 29.6732 55.8717 29.3802 53.4629 29.1523C51.0866 28.9245 48.2057 28.8105 44.8203 28.8105V60.1094H64.1074V64.4062Z" fill="black"/>
</g>
<g filter="url(#filter1_d_6_2)">
<path d="M50 62.1934C50 58.3848 51.0417 55.1458 53.125 52.4766C55.2409 49.8073 58.1217 47.6263 61.7676 45.9336C65.4134 44.2083 69.6615 42.9551 74.5117 42.1738C79.362 41.3926 84.554 41.002 90.0879 41.002C92.7246 41.002 95.2962 41.0345 97.8027 41.0996C100.309 41.1322 102.588 41.1973 104.639 41.2949C106.722 41.3926 108.512 41.5065 110.01 41.6367C111.507 41.7669 112.598 41.9134 113.281 42.0762C113.932 42.2389 114.453 42.418 114.844 42.6133C115.234 42.8086 115.527 43.0365 115.723 43.2969C115.918 43.5573 116.048 43.8665 116.113 44.2246C116.178 44.5501 116.211 44.9408 116.211 45.3965C116.211 45.7871 116.162 46.2266 116.064 46.7148C115.967 47.1706 115.82 47.61 115.625 48.0332C115.43 48.4238 115.186 48.7656 114.893 49.0586C114.6 49.3516 114.242 49.498 113.818 49.498C113.558 49.498 113.265 49.3841 112.939 49.1562C112.646 48.9284 112.207 48.6354 111.621 48.2773C111.068 47.9193 110.303 47.5449 109.326 47.1543C108.382 46.7637 107.096 46.3893 105.469 46.0312C103.874 45.6732 101.872 45.3802 99.4629 45.1523C97.0866 44.9245 94.2057 44.8105 90.8203 44.8105V76.1094H111.084V80.4062H90.8203V99.498C90.8203 101.028 91.0482 102.346 91.5039 103.453C91.9596 104.527 92.6107 105.423 93.457 106.139C94.3034 106.855 95.3125 107.376 96.4844 107.701C97.6888 108.027 99.0234 108.189 100.488 108.189C102.148 108.189 103.809 108.027 105.469 107.701C107.129 107.343 108.691 106.904 110.156 106.383C111.654 105.862 113.005 105.276 114.209 104.625C115.446 103.974 116.439 103.339 117.188 102.721L119.092 104.82C118.278 105.471 117.188 106.367 115.82 107.506C114.453 108.613 112.777 109.703 110.791 110.777C108.838 111.852 106.543 112.796 103.906 113.609C101.302 114.391 98.3398 114.781 95.0195 114.781C93.9128 114.781 92.6432 114.716 91.2109 114.586C89.8112 114.488 88.3626 114.277 86.8652 113.951C85.3678 113.593 83.8867 113.089 82.4219 112.438C80.9896 111.754 79.7038 110.859 78.5645 109.752C77.4577 108.645 76.5462 107.294 75.8301 105.699C75.1465 104.072 74.8047 102.135 74.8047 99.8887V80.4062H67.1875V76.1094H74.8047V45.3965C73.763 45.4941 72.5586 45.6895 71.1914 45.9824C69.8568 46.2428 68.4733 46.6335 67.041 47.1543C65.6413 47.6426 64.2578 48.2285 62.8906 48.9121C61.5234 49.5957 60.3027 50.3932 59.2285 51.3047C58.1543 52.2161 57.2754 53.2415 56.5918 54.3809C55.9408 55.4876 55.6152 56.6921 55.6152 57.9941C55.6152 59.0358 55.7454 59.8659 56.0059 60.4844C56.2988 61.1029 56.6243 61.5749 56.9824 61.9004C57.3405 62.1934 57.6986 62.3887 58.0566 62.4863C58.4473 62.5514 58.724 62.584 58.8867 62.584C59.7005 62.584 60.3678 62.4538 60.8887 62.1934C61.4095 61.9004 61.8815 61.6074 62.3047 61.3145C62.7279 60.9889 63.1185 60.696 63.4766 60.4355C63.8672 60.1426 64.3066 59.9961 64.7949 59.9961C65.1855 59.9961 65.5924 60.0938 66.0156 60.2891C66.4714 60.4518 66.8783 60.7285 67.2363 61.1191C67.627 61.5098 67.9525 62.0306 68.2129 62.6816C68.4733 63.3001 68.6035 64.0651 68.6035 64.9766C68.6035 66.2786 68.3431 67.418 67.8223 68.3945C67.334 69.3385 66.6829 70.1198 65.8691 70.7383C65.0879 71.3568 64.1764 71.8288 63.1348 72.1543C62.1257 72.4473 61.1165 72.5938 60.1074 72.5938C58.5449 72.5938 57.1289 72.3333 55.8594 71.8125C54.6224 71.2591 53.5645 70.5104 52.6855 69.5664C51.8066 68.6224 51.1393 67.5319 50.6836 66.2949C50.2279 65.0254 50 63.6582 50 62.1934Z" fill="black"/>
</g>
<g filter="url(#filter2_d_6_2)">
<path d="M118.176 89.1836C118.176 88.2721 118.371 87.4095 118.762 86.5957C119.185 85.7493 119.755 85.0169 120.471 84.3984C121.219 83.7799 122.066 83.2917 123.01 82.9336C123.986 82.5755 125.044 82.3965 126.184 82.3965C127.29 82.3965 128.316 82.5755 129.26 82.9336C130.236 83.2917 131.083 83.7799 131.799 84.3984C132.515 85.0169 133.068 85.7493 133.459 86.5957C133.882 87.4095 134.094 88.2721 134.094 89.1836C134.094 90.1276 133.882 91.0065 133.459 91.8203C133.068 92.6341 132.515 93.3503 131.799 93.9688C131.083 94.5547 130.236 95.0267 129.26 95.3848C128.316 95.7428 127.29 95.9219 126.184 95.9219C125.044 95.9219 123.986 95.7428 123.01 95.3848C122.066 95.0267 121.219 94.5547 120.471 93.9688C119.755 93.3503 119.185 92.6341 118.762 91.8203C118.371 91.0065 118.176 90.1276 118.176 89.1836ZM119.689 108.91C119.689 107.966 119.462 107.152 119.006 106.469C118.583 105.753 117.85 105.395 116.809 105.395C116.255 105.395 115.783 105.492 115.393 105.688C115.002 105.883 114.579 106.16 114.123 106.518L113.098 105.297C113.846 104.678 114.676 104.076 115.588 103.49C116.532 102.872 117.541 102.335 118.615 101.879C119.689 101.423 120.845 101.049 122.082 100.756C123.319 100.463 124.621 100.316 125.988 100.316C128.104 100.316 129.748 100.609 130.92 101.195C132.092 101.749 132.954 102.449 133.508 103.295C134.061 104.109 134.387 104.988 134.484 105.932C134.615 106.876 134.68 107.706 134.68 108.422V142.992C134.68 147.419 134.094 151.505 132.922 155.248C131.783 158.992 130.041 162.214 127.697 164.916C125.354 167.65 122.424 169.783 118.908 171.312C115.393 172.842 111.291 173.607 106.604 173.607C104.943 173.607 103.348 173.461 101.818 173.168C100.288 172.908 98.9375 172.533 97.7656 172.045C96.5938 171.557 95.666 170.971 94.9824 170.287C94.2663 169.636 93.9082 168.904 93.9082 168.09C93.9082 167.504 94.0059 166.902 94.2012 166.283C94.3639 165.697 94.6081 165.16 94.9336 164.672C95.2591 164.184 95.666 163.777 96.1543 163.451C96.61 163.158 97.1309 163.012 97.7168 163.012C98.0749 163.012 98.4004 163.191 98.6934 163.549C98.9538 163.907 99.2305 164.346 99.5234 164.867C99.8164 165.388 100.158 165.958 100.549 166.576C100.907 167.227 101.379 167.813 101.965 168.334C102.551 168.855 103.283 169.294 104.162 169.652C105.008 170.01 106.05 170.189 107.287 170.189C108.947 170.189 110.412 169.848 111.682 169.164C112.951 168.513 114.042 167.602 114.953 166.43C115.865 165.258 116.63 163.874 117.248 162.279C117.867 160.684 118.355 158.975 118.713 157.152C119.071 155.329 119.315 153.425 119.445 151.439C119.608 149.454 119.689 147.468 119.689 145.482V108.91Z" fill="black"/>
</g>
<defs>
<filter id="filter0_d_6_2" x="0" y="25.002" width="74.2109" height="81.7793" filterUnits="userSpaceOnUse" color-interpolation-filters="sRGB">
<feFlood flood-opacity="0" result="BackgroundImageFix"/>
<feColorMatrix in="SourceAlpha" type="matrix" values="0 0 0 0 0 0 0 0 0 0 0 0 0 0 0 0 0 0 127 0" result="hardAlpha"/>
<feOffset dy="4"/>
<feGaussianBlur stdDeviation="2"/>
<feComposite in2="hardAlpha" operator="out"/>
<feColorMatrix type="matrix" values="0 0 0 0 0 0 0 0 0 0 0 0 0 0 0 0 0 0 0.25 0"/>
<feBlend mode="normal" in2="BackgroundImageFix" result="effect1_dropShadow_6_2"/>
<feBlend mode="normal" in="SourceGraphic" in2="effect1_dropShadow_6_2" result="shape"/>
</filter>
<filter id="filter1_d_6_2" x="46" y="41.002" width="77.0918" height="81.7793" filterUnits="userSpaceOnUse" color-interpolation-filters="sRGB">
<feFlood flood-opacity="0" result="BackgroundImageFix"/>
<feColorMatrix in="SourceAlpha" type="matrix" values="0 0 0 0 0 0 0 0 0 0 0 0 0 0 0 0 0 0 127 0" result="hardAlpha"/>
<feOffset dy="4"/>
<feGaussianBlur stdDeviation="2"/>
<feComposite in2="hardAlpha" operator="out"/>
<feColorMatrix type="matrix" values="0 0 0 0 0 0 0 0 0 0 0 0 0 0 0 0 0 0 0.25 0"/>
<feBlend mode="normal" in2="BackgroundImageFix" result="effect1_dropShadow_6_2"/>
<feBlend mode="normal" in="SourceGraphic" in2="effect1_dropShadow_6_2" result="shape"/>
</filter>
<filter id="filter2_d_6_2" x="89.9082" y="82.3965" width="48.7715" height="99.2109" filterUnits="userSpaceOnUse" color-interpolation-filters="sRGB">
<feFlood flood-opacity="0" result="BackgroundImageFix"/>
<feColorMatrix in="SourceAlpha" type="matrix" values="0 0 0 0 0 0 0 0 0 0 0 0 0 0 0 0 0 0 127 0" result="hardAlpha"/>
<feOffset dy="4"/>
<feGaussianBlur stdDeviation="2"/>
<feComposite in2="hardAlpha" operator="out"/>
<feColorMatrix type="matrix" values="0 0 0 0 0 0 0 0 0 0 0 0 0 0 0 0 0 0 0.25 0"/>
<feBlend mode="normal" in2="BackgroundImageFix" result="effect1_dropShadow_6_2"/>
<feBlend mode="normal" in="SourceGraphic" in2="effect1_dropShadow_6_2" result="shape"/>
</filter>
</defs>
</svg>
